<?xml version="1.0" standalone="no"?>
<!DOCTYPE svg PUBLIC "-//W3C//DTD SVG 20010904//EN"
 "http://www.w3.org/TR/2001/REC-SVG-20010904/DTD/svg10.dtd">
<svg version="1.0" xmlns="http://www.w3.org/2000/svg"
 width="254.000000pt" height="312.000000pt" viewBox="0 0 254.000000 312.000000"
 preserveAspectRatio="xMidYMid meet">
<metadata>
Created by potrace 1.15, written by Peter Selinger 2001-2017
</metadata>
<g transform="translate(0.000000,312.000000) scale(0.100000,-0.100000)"
fill="#2c2f36" stroke="none">
<path d="M1760 3111 c-83 -27 -155 -98 -192 -190 -19 -46 -23 -75 -23 -171 0
-105 2 -120 28 -175 15 -32 45 -82 66 -110 113 -147 136 -213 146 -402 l7
-143 -158 0 -157 0 -196 126 c-108 70 -214 143 -236 164 -105 100 -238 113
-340 36 -61 -47 -79 -95 -185 -496 -91 -341 -102 -391 -96 -441 9 -89 42 -163
100 -227 45 -49 216 -316 216 -337 0 -4 -75 -127 -166 -273 -182 -290 -192
-316 -159 -386 23 -48 67 -78 124 -83 81 -8 94 7 319 366 252 403 244 357 107
585 -53 87 -94 160 -93 161 2 2 21 6 44 9 l40 7 117 -180 117 -180 0 -334 c0
-331 0 -334 23 -368 59 -89 185 -89 244 0 23 34 23 36 23 413 0 270 -3 386
-12 401 -6 12 -97 153 -201 312 -105 160 -190 299 -189 310 3 30 68 305 75
311 3 3 52 -25 109 -62 56 -37 117 -73 135 -80 47 -20 500 -20 547 0 79 33
104 134 47 198 -27 31 -29 39 -36 168 -5 74 -7 152 -6 174 3 58 44 166 100
264 56 97 81 178 81 262 0 147 -81 294 -192 351 -45 23 -138 33 -178 20z m151
-77 c71 -36 130 -128 149 -233 25 -139 -34 -292 -132 -342 -148 -77 -309 54
-325 264 -17 225 148 392 308 311z m-3 -708 c-9 -28 -20 -75 -24 -103 -7 -58
-30 -73 -39 -25 -5 21 -49 143 -62 172 -2 3 30 5 70 6 l73 1 -18 -51z"/>
<path d="M890 2867 c-56 -18 -125 -93 -144 -156 -20 -68 -20 -84 0 -150 30
-102 122 -171 227 -171 97 0 173 47 220 135 30 56 30 164 0 221 -28 52 -95
111 -142 124 -46 13 -116 11 -161 -3z"/>
<path d="M1398 2191 c-98 -25 -178 -48 -178 -51 0 -3 53 -39 118 -81 l118 -76
101 27 c112 29 130 39 150 88 28 67 -24 143 -96 141 -20 -1 -116 -22 -213 -48z"/>
<path d="M1432 1446 c-35 -33 -37 -38 -37 -96 0 -58 2 -63 37 -96 33 -29 45
-34 89 -34 46 0 55 4 90 39 35 35 39 44 39 91 0 47 -4 56 -39 91 -35 35 -44
39 -90 39 -44 0 -56 -5 -89 -34z"/>
</g>
</svg>
