<?xml version="1.0" standalone="no"?>
<!DOCTYPE svg PUBLIC "-//W3C//DTD SVG 20010904//EN"
 "http://www.w3.org/TR/2001/REC-SVG-20010904/DTD/svg10.dtd">
<svg version="1.0" xmlns="http://www.w3.org/2000/svg"
 width="254.000000pt" height="312.000000pt" viewBox="0 0 254.000000 312.000000"
 preserveAspectRatio="xMidYMid meet">
<metadata>
Created by potrace 1.14, written by Peter Selinger 2001-2017
</metadata>
<g transform="translate(0.000000,312.000000) scale(0.100000,-0.100000)"
fill="#cdced6" stroke="none">
<path d="M1161 3098 c-40 -42 -229 -452 -332 -718 -144 -374 -130 -346 -176
-353 -51 -9 -85 -44 -85 -91 0 -19 3 -39 6 -45 4 -5 -3 -12 -14 -16 -52 -16
-80 -114 -46 -160 17 -24 10 -44 -20 -56 -13 -4 -24 -15 -24 -24 0 -17 69 -55
100 -55 21 0 28 24 10 35 -6 4 -7 13 -1 24 9 16 27 9 183 -70 118 -60 184 -88
208 -89 27 0 52 12 110 54 l75 55 3 -206 2 -206 -150 -243 -149 -244 -86 -273
c-47 -150 -85 -281 -85 -290 0 -62 64 -127 125 -127 36 0 89 31 106 61 6 12
46 134 89 271 l78 248 107 174 107 174 46 -15 c26 -9 52 -21 58 -27 6 -6 33
-85 59 -175 54 -179 41 -155 288 -533 98 -151 126 -178 184 -178 39 0 89 33
109 71 31 61 18 91 -149 347 l-155 237 -56 186 -56 186 0 414 c0 469 0 463
-80 531 -38 33 -105 58 -156 58 -8 0 -107 -70 -219 -155 -112 -85 -208 -155
-214 -155 -27 0 -271 131 -271 145 0 27 97 209 248 467 165 280 352 657 352
707 0 68 -84 106 -129 59z"/>
<path d="M1310 2585 c-83 -38 -134 -117 -134 -210 -1 -113 65 -199 174 -225
134 -32 270 85 270 232 0 27 1 28 55 28 40 0 57 4 61 15 12 30 -16 45 -80 45
-57 1 -62 3 -81 32 -11 18 -39 46 -63 62 -52 37 -145 46 -202 21z"/>
<path d="M1849 2192 c-27 -24 -33 -38 -37 -83 -4 -48 -1 -59 23 -87 48 -57
124 -62 175 -11 54 54 51 128 -6 179 -48 42 -110 42 -155 2z"/>
<path d="M764 1954 c-19 -41 -34 -79 -34 -84 0 -22 48 -30 190 -30 l151 0 107
86 c59 47 109 90 110 95 2 5 -101 9 -243 9 l-246 0 -35 -76z"/>
</g>
</svg>
