<?xml version="1.0" standalone="no"?>
<!DOCTYPE svg PUBLIC "-//W3C//DTD SVG 20010904//EN"
 "http://www.w3.org/TR/2001/REC-SVG-20010904/DTD/svg10.dtd">
<svg version="1.0" xmlns="http://www.w3.org/2000/svg"
 width="254.000000pt" height="312.000000pt" viewBox="0 0 254.000000 312.000000"
 preserveAspectRatio="xMidYMid meet">
<metadata>
Created by potrace 1.15, written by Peter Selinger 2001-2017
</metadata>
<g transform="translate(0.000000,312.000000) scale(0.100000,-0.100000)"
fill="#2c2f36" stroke="none">
<path d="M1314 2251 c-60 -27 -89 -73 -89 -141 0 -68 29 -114 89 -141 74 -34
144 -20 201 40 27 29 30 38 30 101 0 63 -3 72 -30 101 -57 60 -127 74 -201 40z"/>
<path d="M1075 1969 c-40 -12 -401 -302 -425 -342 -27 -44 -26 -119 1 -163 14
-23 41 -44 87 -65 54 -26 258 -135 270 -144 2 -2 -35 -62 -82 -134 -89 -136
-101 -173 -76 -222 14 -25 62 -49 99 -49 46 0 78 36 206 234 113 176 126 206
105 247 -8 14 -7 19 2 20 7 0 36 11 63 24 l50 24 -95 -1 -96 -2 -92 49 c-51
28 -91 53 -90 56 2 4 37 34 78 67 l75 60 22 -71 c33 -108 31 -107 254 -107
182 0 189 1 215 23 28 24 35 62 21 103 -7 20 0 25 67 53 101 42 186 61 279 61
78 0 79 0 90 30 6 17 14 30 17 30 6 -1 334 -548 338 -566 3 -13 -66 -69 -99
-79 -12 -4 -35 8 -72 38 -38 31 -80 53 -138 72 -59 20 -95 39 -123 66 -40 37
-41 39 -41 106 0 37 4 78 8 89 6 18 3 24 -22 32 -29 10 -31 10 -41 -26 -5 -20
-10 -67 -10 -104 0 -39 -4 -68 -10 -68 -5 0 -29 -17 -52 -37 -45 -41 -88 -122
-88 -165 0 -24 4 -28 29 -28 25 0 30 5 35 33 8 45 56 119 88 135 23 13 29 11
71 -21 42 -32 118 -67 180 -82 13 -4 51 -29 83 -55 34 -29 69 -50 83 -50 37 0
104 36 156 84 40 38 45 47 36 64 -13 24 -386 646 -408 681 -16 25 -16 24 -43
-45 l-28 -69 -88 -7 c-105 -8 -199 -35 -308 -89 -77 -38 -80 -39 -192 -39
l-113 0 -15 53 c-8 28 -24 88 -35 131 -24 95 -43 124 -101 154 -47 23 -76 26
-125 11z"/>
<path d="M297 1449 c-128 -30 -230 -129 -277 -268 -28 -85 -27 -101 9 -101 27
0 30 4 40 50 22 104 89 193 177 236 79 38 163 41 337 11 75 -13 137 -23 137
-21 0 1 -28 19 -62 40 -90 55 -252 79 -361 53z"/>
</g>
</svg>
