<?xml version="1.0" standalone="no"?>
<!DOCTYPE svg PUBLIC "-//W3C//DTD SVG 20010904//EN"
 "http://www.w3.org/TR/2001/REC-SVG-20010904/DTD/svg10.dtd">
<svg version="1.0" xmlns="http://www.w3.org/2000/svg"
 width="254.000000pt" height="312.000000pt" viewBox="0 0 254.000000 312.000000"
 preserveAspectRatio="xMidYMid meet">
<metadata>
Created by potrace 1.14, written by Peter Selinger 2001-2017
</metadata>
<g transform="translate(0.000000,312.000000) scale(0.100000,-0.100000)"
fill="#2c2f36" stroke="none">
<path d="M1367 3106 c-100 -37 -167 -112 -187 -212 -26 -123 43 -250 164 -305
61 -28 167 -25 231 5 144 67 203 233 131 373 -29 57 -65 93 -126 123 -56 29
-159 36 -213 16z"/>
<path d="M2355 2758 c-11 -7 -98 -77 -193 -156 l-173 -145 -412 4 c-227 2
-538 3 -692 1 l-280 -2 -210 -176 c-116 -97 -215 -186 -222 -197 -7 -12 -12
-42 -13 -65 0 -37 6 -50 34 -78 30 -30 41 -34 83 -34 59 0 60 1 278 184 l150
126 138 0 c85 0 137 -4 137 -10 0 -14 -90 -300 -241 -761 -71 -218 -129 -408
-129 -423 0 -87 88 -150 184 -132 64 12 87 48 146 230 l54 166 83 0 c62 0 81
-3 78 -12 -3 -7 -77 -263 -165 -568 -113 -390 -159 -564 -155 -585 9 -53 40
-92 89 -110 59 -23 107 -14 152 28 34 31 41 53 342 1097 l308 1065 180 5 180
5 211 175 c127 104 218 188 227 207 30 60 12 123 -44 157 -32 19 -96 21 -125
4z"/>
<path d="M267 670 c-101 -26 -197 -105 -240 -198 -32 -68 -31 -197 2 -269 28
-63 112 -146 178 -176 74 -33 209 -31 284 4 161 76 239 262 178 424 -29 79
-101 154 -179 189 -66 30 -163 41 -223 26z"/>
</g>
</svg>
