<?xml version="1.0" standalone="no"?>
<!DOCTYPE svg PUBLIC "-//W3C//DTD SVG 20010904//EN"
 "http://www.w3.org/TR/2001/REC-SVG-20010904/DTD/svg10.dtd">
<svg version="1.0" xmlns="http://www.w3.org/2000/svg"
 width="254.000000pt" height="312.000000pt" viewBox="0 0 254.000000 312.000000"
 preserveAspectRatio="xMidYMid meet">
<metadata>
Created by potrace 1.15, written by Peter Selinger 2001-2017
</metadata>
<g transform="translate(0.000000,312.000000) scale(0.100000,-0.100000)"
fill="#2c2f36" stroke="none">
<path d="M2002 3100 c-28 -17 -50 -51 -65 -100 -3 -8 -41 -28 -86 -44 l-82
-29 -41 43 c-73 75 -173 100 -278 69 -59 -17 -144 -101 -159 -155 -48 -171 68
-334 238 -334 78 0 127 18 181 67 54 49 83 109 84 178 l1 45 86 29 86 29 72
-173 c39 -95 71 -177 71 -182 0 -4 -136 -53 -302 -108 -166 -55 -319 -111
-340 -126 -71 -47 -116 -144 -103 -218 3 -20 69 -212 145 -427 l139 -391 -34
-275 -33 -275 -153 -264 c-136 -235 -153 -269 -153 -311 -2 -109 124 -183 221
-128 22 12 45 31 53 43 26 42 292 502 311 538 13 26 28 113 50 297 31 254 33
260 56 265 l23 4 0 -506 c0 -334 4 -520 11 -546 19 -70 79 -115 151 -115 46 0
107 38 130 80 18 33 18 65 15 710 l-3 675 -136 380 c-75 209 -134 383 -130
387 4 4 73 29 153 57 81 27 160 56 177 65 32 16 62 69 62 109 0 21 -206 533
-240 596 -30 57 -118 77 -178 41z"/>
<path d="M676 2560 c-274 -94 -505 -175 -513 -182 -29 -24 -42 -67 -53 -184
-11 -107 -11 -124 4 -152 34 -67 101 -85 188 -52 63 23 88 50 88 92 0 15 -18
78 -40 139 -22 62 -40 113 -40 114 0 1 204 71 453 155 l453 153 -15 44 c-9 23
-18 43 -21 42 -3 0 -229 -76 -504 -169z"/>
</g>
</svg>
