<?xml version="1.0" standalone="no"?>
<!DOCTYPE svg PUBLIC "-//W3C//DTD SVG 20010904//EN"
 "http://www.w3.org/TR/2001/REC-SVG-20010904/DTD/svg10.dtd">
<svg version="1.0" xmlns="http://www.w3.org/2000/svg"
 width="254.000000pt" height="312.000000pt" viewBox="0 0 254.000000 312.000000"
 preserveAspectRatio="xMidYMid meet">
<metadata>
Created by potrace 1.15, written by Peter Selinger 2001-2017
</metadata>
<g transform="translate(0.000000,312.000000) scale(0.100000,-0.100000)"
fill="#2c2f36" stroke="none">
<path d="M1166 3030 c-61 -24 -120 -79 -154 -145 -37 -72 -37 -178 1 -251 111
-215 399 -216 506 -2 94 187 -30 403 -239 415 -48 2 -78 -2 -114 -17z"/>
<path d="M2068 2711 c-132 -44 -220 -146 -248 -289 -31 -157 56 -325 208 -399
49 -23 70 -27 147 -28 77 0 98 4 147 27 79 37 142 98 181 177 29 60 32 74 32
161 0 87 -3 101 -32 161 -81 164 -268 246 -435 190z"/>
<path d="M872 2394 c-19 -10 -38 -25 -43 -33 -5 -9 -108 -182 -230 -386 -259
-433 -269 -452 -269 -503 0 -21 33 -182 74 -357 l74 -319 -226 -231 c-124
-126 -231 -244 -238 -262 -55 -129 83 -261 203 -196 35 19 543 535 562 570 19
36 13 106 -24 260 -19 81 -32 149 -30 151 3 4 346 -180 364 -194 2 -2 -55
-140 -128 -308 -89 -205 -131 -315 -131 -340 0 -83 54 -144 135 -154 55 -6
115 26 143 77 43 78 325 746 329 780 3 25 -3 50 -19 81 -22 42 -35 51 -250
170 -125 69 -228 128 -228 131 0 8 309 591 320 602 4 5 140 -64 302 -152 252
-138 301 -161 338 -161 117 0 169 142 82 222 -41 38 -1004 558 -1043 564 -21
3 -47 -2 -67 -12z"/>
</g>
</svg>
